<mxfile host="app.diagrams.net" modified="2023-10-21T10:31:40.854Z" agent="Mozilla/5.0 (Windows NT 10.0; Win64; x64) AppleWebKit/537.36 (KHTML, like Gecko) Chrome/118.0.0.0 Safari/537.36" etag="pCTvvgjarpCRpZlVKL7b" version="22.0.6" type="device">
  <diagram name="Сторінка-1" id="tnLcLUXqHJCQnk4bmuAs">
    <mxGraphModel dx="756" dy="419" grid="1" gridSize="10" guides="1" tooltips="1" connect="1" arrows="1" fold="1" page="1" pageScale="1" pageWidth="827" pageHeight="1169" math="0" shadow="0">
      <root>
        <mxCell id="0" />
        <mxCell id="1" parent="0" />
        <mxCell id="SDawg5pdEoXjvyeKrGQc-1" value="" style="rounded=0;whiteSpace=wrap;html=1;" parent="1" vertex="1">
          <mxGeometry x="40" y="150" width="670" height="390" as="geometry" />
        </mxCell>
        <mxCell id="SDawg5pdEoXjvyeKrGQc-2" value="&lt;u&gt;&amp;lt;&amp;lt;Смартфон&amp;gt;&amp;gt;&lt;/u&gt;" style="verticalAlign=top;align=center;shape=cube;size=10;direction=south;fontStyle=0;html=1;boundedLbl=1;spacingLeft=5;whiteSpace=wrap;" parent="1" vertex="1">
          <mxGeometry x="110" y="200" width="210" height="200" as="geometry" />
        </mxCell>
        <mxCell id="SDawg5pdEoXjvyeKrGQc-3" value="&lt;u&gt;&amp;lt;&amp;lt;OC Android&amp;gt;&amp;gt;&lt;/u&gt;" style="verticalAlign=top;align=center;shape=cube;size=10;direction=south;html=1;boundedLbl=1;spacingLeft=5;whiteSpace=wrap;" parent="SDawg5pdEoXjvyeKrGQc-2" vertex="1">
          <mxGeometry width="170" height="140" relative="1" as="geometry">
            <mxPoint x="10" y="50" as="offset" />
          </mxGeometry>
        </mxCell>
        <mxCell id="SDawg5pdEoXjvyeKrGQc-4" value="&lt;div style=&quot;text-align: justify;&quot;&gt;&lt;span style=&quot;background-color: initial;&quot;&gt;*.apk&lt;/span&gt;&lt;/div&gt;&lt;div style=&quot;text-align: justify;&quot;&gt;&lt;span style=&quot;background-color: initial;&quot;&gt;(Android&lt;/span&gt;&lt;/div&gt;&lt;div style=&quot;text-align: justify;&quot;&gt;&lt;span style=&quot;background-color: initial;&quot;&gt;Studio)&lt;/span&gt;&lt;/div&gt;" style="rounded=0;whiteSpace=wrap;html=1;align=right;" parent="SDawg5pdEoXjvyeKrGQc-2" vertex="1">
          <mxGeometry x="70" y="112.5" width="81.67" height="62.5" as="geometry" />
        </mxCell>
        <mxCell id="SDawg5pdEoXjvyeKrGQc-5" value="" style="rounded=0;whiteSpace=wrap;html=1;" parent="SDawg5pdEoXjvyeKrGQc-2" vertex="1">
          <mxGeometry x="50" y="125" width="39.375" height="12.5" as="geometry" />
        </mxCell>
        <mxCell id="SDawg5pdEoXjvyeKrGQc-6" value="" style="rounded=0;whiteSpace=wrap;html=1;" parent="SDawg5pdEoXjvyeKrGQc-2" vertex="1">
          <mxGeometry x="50" y="150" width="39.375" height="12.5" as="geometry" />
        </mxCell>
        <mxCell id="SDawg5pdEoXjvyeKrGQc-7" value="" style="endArrow=none;dashed=1;html=1;dashPattern=1 3;strokeWidth=2;rounded=0;" parent="1" edge="1">
          <mxGeometry width="50" height="50" relative="1" as="geometry">
            <mxPoint x="371.3333384195964" y="390" as="sourcePoint" />
            <mxPoint x="370" y="190" as="targetPoint" />
          </mxGeometry>
        </mxCell>
        <mxCell id="SDawg5pdEoXjvyeKrGQc-8" value="&lt;u&gt;&amp;lt;&amp;lt;Server&amp;gt;&amp;gt;&lt;/u&gt;" style="verticalAlign=top;align=center;shape=cube;size=10;direction=south;fontStyle=0;html=1;boundedLbl=1;spacingLeft=5;whiteSpace=wrap;" parent="1" vertex="1">
          <mxGeometry x="430" y="200" width="240" height="210" as="geometry" />
        </mxCell>
        <mxCell id="SDawg5pdEoXjvyeKrGQc-9" value="&lt;u&gt;&amp;lt;&amp;lt;Google Cloud Platform GCP&amp;gt;&amp;gt;&lt;/u&gt;" style="verticalAlign=top;align=center;shape=cube;size=10;direction=south;html=1;boundedLbl=1;spacingLeft=5;whiteSpace=wrap;" parent="SDawg5pdEoXjvyeKrGQc-8" vertex="1">
          <mxGeometry width="210" height="150" relative="1" as="geometry">
            <mxPoint x="10" y="50" as="offset" />
          </mxGeometry>
        </mxCell>
        <mxCell id="SDawg5pdEoXjvyeKrGQc-10" value="&lt;u&gt;&amp;lt;&amp;lt;FireBase&amp;gt;&amp;gt;&lt;/u&gt;" style="verticalAlign=top;align=center;shape=cube;size=10;direction=south;html=1;boundedLbl=1;spacingLeft=5;whiteSpace=wrap;" parent="SDawg5pdEoXjvyeKrGQc-8" vertex="1">
          <mxGeometry x="22.86" y="94.5" width="171.43" height="95.5" as="geometry" />
        </mxCell>
        <mxCell id="SDawg5pdEoXjvyeKrGQc-11" value="Key-value" style="strokeWidth=2;html=1;shape=mxgraph.flowchart.database;whiteSpace=wrap;" parent="SDawg5pdEoXjvyeKrGQc-8" vertex="1">
          <mxGeometry x="70.72000000000001" y="130" width="75.71" height="52.5" as="geometry" />
        </mxCell>
        <mxCell id="SDawg5pdEoXjvyeKrGQc-12" value="" style="endArrow=none;html=1;rounded=0;exitX=0;exitY=0;exitDx=95;exitDy=0;exitPerimeter=0;entryX=0.449;entryY=1.003;entryDx=0;entryDy=0;entryPerimeter=0;" parent="1" source="SDawg5pdEoXjvyeKrGQc-2" target="SDawg5pdEoXjvyeKrGQc-8" edge="1">
          <mxGeometry width="50" height="50" relative="1" as="geometry">
            <mxPoint x="430" y="390" as="sourcePoint" />
            <mxPoint x="480" y="340" as="targetPoint" />
          </mxGeometry>
        </mxCell>
        <mxCell id="SDawg5pdEoXjvyeKrGQc-13" value="" style="ellipse;whiteSpace=wrap;html=1;aspect=fixed;" parent="1" vertex="1">
          <mxGeometry x="210" y="460" width="30" height="30" as="geometry" />
        </mxCell>
        <mxCell id="SDawg5pdEoXjvyeKrGQc-14" value="" style="endArrow=none;html=1;rounded=0;exitX=0.5;exitY=0;exitDx=0;exitDy=0;entryX=0;entryY=0;entryDx=200;entryDy=95;entryPerimeter=0;" parent="1" source="SDawg5pdEoXjvyeKrGQc-13" target="SDawg5pdEoXjvyeKrGQc-2" edge="1">
          <mxGeometry width="50" height="50" relative="1" as="geometry">
            <mxPoint x="430" y="390" as="sourcePoint" />
            <mxPoint x="480" y="340" as="targetPoint" />
          </mxGeometry>
        </mxCell>
        <mxCell id="SDawg5pdEoXjvyeKrGQc-15" value="Сенсорний екран" style="text;html=1;strokeColor=none;fillColor=none;align=center;verticalAlign=middle;whiteSpace=wrap;rounded=0;" parent="1" vertex="1">
          <mxGeometry x="195" y="500" width="60" height="30" as="geometry" />
        </mxCell>
      </root>
    </mxGraphModel>
  </diagram>
</mxfile>
